# This file uses centimeters as units for non-parametric coordinates.

mtllib coffee-table.mtl
g default
v 0.020196 0.657481 -0.060727
v 0.968864 0.657481 -0.060727
v 0.086458 0.732321 -0.143425
v 0.902602 0.732321 -0.143425
v 0.086458 0.732321 -2.830585
v 0.902602 0.732321 -2.830585
v 0.020196 0.657481 -2.913283
v 0.968864 0.657481 -2.913283
v 0.902602 0.732321 -2.726905
v 0.086458 0.732321 -2.726905
v 0.020196 0.657481 -2.803221
v 0.968864 0.657481 -2.803221
v 0.902602 0.732321 -0.247105
v 0.086458 0.732321 -0.247105
v 0.020196 0.657481 -0.170789
v 0.968864 0.657481 -0.170789
v 0.214475 0.732321 -0.247105
v 0.214475 0.732321 -0.143425
v 0.169000 0.657481 -0.060727
v 0.169000 0.657481 -0.170789
v 0.169000 0.657481 -2.803221
v 0.169000 0.657481 -2.913283
v 0.214475 0.732321 -2.830585
v 0.214475 0.732321 -2.726905
v 0.774585 0.732321 -0.247105
v 0.774585 0.732321 -0.143425
v 0.820059 0.657481 -0.060727
v 0.820059 0.657481 -0.170789
v 0.820059 0.657481 -2.803221
v 0.820059 0.657481 -2.913283
v 0.774585 0.732321 -2.830585
v 0.774585 0.732321 -2.726905
v 0.833919 0.000000 -0.114748
v 0.989060 0.000000 -0.114748
v 0.989060 0.000000 -0.000000
v 0.833919 0.000000 -0.000000
v 0.833919 0.000000 -2.974011
v 0.989060 0.000000 -2.974011
v 0.989060 0.000000 -2.859262
v 0.833919 0.000000 -2.859262
v 0.000000 0.000000 -0.114748
v 0.155140 0.000000 -0.114748
v 0.155140 0.000000 -0.000000
v 0.000000 0.000000 -0.000000
v 0.000000 0.000000 -2.974011
v 0.155140 0.000000 -2.974011
v 0.155140 0.000000 -2.859262
v 0.000000 0.000000 -2.859262
v 0.852221 0.656765 -0.033459
v 1.015727 0.656765 -0.033459
v 1.015727 0.733036 -0.033459
v 0.852221 0.733036 -0.033459
v 0.852221 0.733036 -2.940551
v 1.015727 0.733036 -2.940551
v 1.015727 0.656765 -2.940551
v 0.852221 0.656765 -2.940551
v 1.015727 0.656765 -0.145625
v 1.015727 0.733036 -0.145625
v -0.026668 0.656765 -0.145625
v -0.026668 0.656765 -0.033459
v -0.026668 0.733036 -0.033459
v -0.026668 0.733036 -0.145625
v -0.026668 0.656765 -2.940551
v -0.026668 0.656765 -2.828385
v -0.026668 0.733036 -2.828385
v -0.026668 0.733036 -2.940551
v 1.015727 0.656765 -2.828385
v 1.015727 0.733036 -2.828385
v 0.136838 0.656765 -0.033459
v 0.136838 0.733036 -0.033459
v 0.136838 0.733036 -2.940551
v 0.136838 0.656765 -2.940551
vt 0.650714 0.047505
vt 0.650714 0.001992
vt 0.671944 0.001992
vt 0.671944 0.047505
vt 0.650714 0.246636
vt 0.671944 0.246636
vt 0.650714 0.292149
vt 0.671944 0.292149
vt 0.224928 0.032602
vt 0.260562 0.032602
vt 0.260562 0.061462
vt 0.224928 0.061462
vt 0.246538 0.001992
vt 0.292051 0.001992
vt 0.292051 0.033214
vt 0.224928 0.751729
vt 0.260562 0.751729
vt 0.069018 0.032602
vt 0.069018 0.061462
vt 0.047407 0.001992
vt 0.292051 0.779977
vt 0.069018 0.751729
vt 0.260562 0.780589
vt 0.224928 0.780589
vt 0.033383 0.032602
vt 0.033383 0.061462
vt 0.001894 0.001992
vt 0.292051 0.811199
vt 0.033383 0.751729
vt 0.069018 0.780589
vt 0.246538 0.811199
vt 0.001894 0.033214
vt 0.033383 0.780589
vt 0.001894 0.779977
vt 0.047407 0.811199
vt 0.001894 0.811199
vt 0.678513 0.047505
vt 0.678513 0.001992
vt 0.699743 0.001992
vt 0.699743 0.047505
vt 0.678513 0.246636
vt 0.699743 0.246636
vt 0.678513 0.292149
vt 0.699743 0.292149
vt 0.203008 0.858178
vt 0.203008 0.814994
vt 0.234949 0.814994
vt 0.234949 0.858178
vt 0.298598 0.811199
vt 0.298598 0.779977
vt 0.319829 0.779977
vt 0.319829 0.811199
vt 0.298598 0.033214
vt 0.319829 0.033214
vt 0.298598 0.001992
vt 0.319829 0.001992
vt 0.326397 0.033214
vt 0.326397 0.001992
vt 0.347627 0.001992
vt 0.347627 0.033214
vt 0.326397 0.779977
vt 0.347627 0.779977
vt 0.326397 0.811199
vt 0.347627 0.811199
vt 0.278557 0.858179
vt 0.278557 0.814994
vt 0.310498 0.814994
vt 0.310498 0.858179
vt 0.589887 0.040219
vt 0.631308 0.040219
vt 0.631308 0.772972
vt 0.589887 0.772972
vt 0.644353 0.033214
vt 0.644353 0.779977
vt 0.408661 0.040219
vt 0.408661 0.772972
vt 0.631308 0.009582
vt 0.644353 0.001992
vt 0.631308 0.803609
vt 0.644353 0.811199
vt 0.408661 0.009582
vt 0.589887 0.009582
vt 0.589887 0.803609
vt 0.408661 0.803609
vt 0.367240 0.040219
vt 0.367240 0.772972
vt 0.598840 0.001992
vt 0.598840 0.811199
vt 0.399708 0.001992
vt 0.399708 0.811199
vt 0.354195 0.779977
vt 0.354195 0.033214
vt 0.367240 0.009582
vt 0.354195 0.001992
vt 0.367240 0.803609
vt 0.354195 0.811199
vt 0.165233 0.858178
vt 0.165233 0.814994
vt 0.197174 0.814994
vt 0.197174 0.858178
vt 0.240783 0.858179
vt 0.240783 0.814994
vt 0.272723 0.814994
vt 0.272723 0.858179
vt 0.706311 0.001992
vt 0.747732 0.001992
vt 0.753354 0.185006
vt 0.710169 0.185006
vt 0.948997 0.371815
vt 0.918361 0.371815
vt 0.901457 0.188801
vt 0.933397 0.188801
vt 0.890001 0.371815
vt 0.848581 0.371815
vt 0.852439 0.188801
vt 0.895623 0.188801
vt 0.825843 0.371815
vt 0.795206 0.371815
vt 0.810806 0.188801
vt 0.842746 0.188801
vt 0.760055 0.001992
vt 0.801476 0.001992
vt 0.807097 0.185006
vt 0.763913 0.185006
vt 0.772468 0.371815
vt 0.741832 0.371815
vt 0.757432 0.188801
vt 0.789372 0.188801
vt 0.730376 0.478958
vt 0.688956 0.478958
vt 0.692814 0.295945
vt 0.735998 0.295945
vt 0.683122 0.998008
vt 0.652485 0.998008
vt 0.635582 0.814994
vt 0.667522 0.814994
vt 0.819421 0.001992
vt 0.860842 0.001992
vt 0.856983 0.185006
vt 0.813799 0.185006
vt 0.629748 0.998008
vt 0.599111 0.998008
vt 0.582207 0.814994
vt 0.614148 0.814994
vt 0.576373 0.998008
vt 0.534953 0.998008
vt 0.529331 0.814994
vt 0.572515 0.814994
vt 0.506593 0.998008
vt 0.475957 0.998008
vt 0.491556 0.814994
vt 0.523497 0.814994
vt 0.873165 0.001992
vt 0.914586 0.001992
vt 0.910727 0.185006
vt 0.867543 0.185006
vt 0.453219 0.998008
vt 0.422583 0.998008
vt 0.438182 0.814994
vt 0.470123 0.814994
vt 0.416749 0.998008
vt 0.375328 0.998008
vt 0.369707 0.814994
vt 0.412891 0.814994
vt 0.363873 0.998008
vt 0.333236 0.998008
vt 0.316332 0.814994
vt 0.348273 0.814994
vn 0.000000 0.000000 1.000000
vn 0.000000 0.000000 1.000000
vn 0.000000 0.000000 1.000000
vn 0.000000 0.000000 1.000000
vn 0.000000 1.000000 0.000000
vn 0.000000 1.000000 0.000000
vn 0.000000 1.000000 0.000000
vn 0.000000 1.000000 0.000000
vn 0.000000 0.000000 -1.000000
vn 0.000000 0.000000 -1.000000
vn 0.000000 0.000000 -1.000000
vn 0.000000 0.000000 -1.000000
vn 0.000000 -1.000000 0.000000
vn 0.000000 -1.000000 0.000000
vn 0.000000 -1.000000 0.000000
vn 0.000000 -1.000000 0.000000
vn 1.000000 0.000000 0.000000
vn 1.000000 0.000000 0.000000
vn 1.000000 0.000000 0.000000
vn 1.000000 0.000000 0.000000
vn -1.000000 0.000000 0.000000
vn -1.000000 0.000000 0.000000
vn -1.000000 0.000000 0.000000
vn -1.000000 0.000000 0.000000
vn 0.000000 1.000000 0.000000
vn 0.000000 1.000000 0.000000
vn 0.000000 1.000000 0.000000
vn 0.000000 1.000000 0.000000
vn -1.000000 0.000000 0.000000
vn -1.000000 0.000000 0.000000
vn -1.000000 0.000000 0.000000
vn -1.000000 0.000000 0.000000
vn 0.000000 -1.000000 0.000000
vn 0.000000 -1.000000 0.000000
vn 0.000000 -1.000000 0.000000
vn 0.000000 -1.000000 0.000000
vn 1.000000 0.000000 0.000000
vn 1.000000 0.000000 0.000000
vn 1.000000 0.000000 0.000000
vn 1.000000 0.000000 0.000000
vn 0.000000 -1.000000 0.000000
vn 0.000000 -1.000000 0.000000
vn 0.000000 -1.000000 0.000000
vn 0.000000 -1.000000 0.000000
vn 0.000000 1.000000 0.000000
vn 0.000000 1.000000 0.000000
vn 0.000000 1.000000 0.000000
vn 0.000000 1.000000 0.000000
vn 0.000000 0.000000 1.000000
vn 0.000000 0.000000 1.000000
vn 0.000000 0.000000 1.000000
vn 0.000000 0.000000 1.000000
vn 0.000000 -1.000000 0.000000
vn 0.000000 -1.000000 0.000000
vn 0.000000 -1.000000 0.000000
vn 0.000000 -1.000000 0.000000
vn 0.000000 -1.000000 0.000000
vn 0.000000 -1.000000 0.000000
vn 0.000000 -1.000000 0.000000
vn 0.000000 -1.000000 0.000000
vn 0.000000 -1.000000 0.000000
vn 0.000000 -1.000000 0.000000
vn 0.000000 -1.000000 0.000000
vn 0.000000 -1.000000 0.000000
vn 0.000000 0.000000 -1.000000
vn 0.000000 0.000000 -1.000000
vn 0.000000 0.000000 -1.000000
vn 0.000000 0.000000 -1.000000
vn 0.000000 1.000000 0.000000
vn 0.000000 1.000000 0.000000
vn 0.000000 1.000000 0.000000
vn 0.000000 1.000000 0.000000
vn 0.000000 -1.000000 0.000000
vn 0.000000 -1.000000 0.000000
vn 0.000000 -1.000000 0.000000
vn 0.000000 -1.000000 0.000000
vn 0.000000 -0.084928 -0.996387
vn 0.000000 -0.084928 -0.996387
vn 0.000000 -0.084928 -0.996387
vn 0.000000 -0.084928 -0.996387
vn 0.999529 0.030703 0.000000
vn 0.999529 0.030703 0.000000
vn 0.999529 0.030703 0.000000
vn 0.999529 0.030703 0.000000
vn 0.000000 0.091972 0.995762
vn 0.000000 0.091972 0.995762
vn 0.000000 0.091972 0.995762
vn 0.000000 0.091972 0.995762
vn -0.999778 -0.021076 0.000000
vn -0.999778 -0.021076 0.000000
vn -0.999778 -0.021076 0.000000
vn -0.999778 -0.021076 0.000000
vn 0.000000 0.091972 -0.995762
vn 0.000000 0.091972 -0.995762
vn 0.000000 0.091972 -0.995762
vn 0.000000 0.091972 -0.995762
vn 0.999529 0.030703 0.000000
vn 0.999529 0.030703 0.000000
vn 0.999529 0.030703 0.000000
vn 0.999529 0.030703 0.000000
vn 0.000000 -0.084928 0.996387
vn 0.000000 -0.084928 0.996387
vn 0.000000 -0.084928 0.996387
vn 0.000000 -0.084928 0.996387
vn -0.999778 -0.021076 0.000000
vn -0.999778 -0.021076 0.000000
vn -0.999778 -0.021076 0.000000
vn -0.999778 -0.021076 0.000000
vn 0.000000 -0.084928 -0.996387
vn 0.000000 -0.084928 -0.996387
vn 0.000000 -0.084928 -0.996387
vn 0.000000 -0.084928 -0.996387
vn 0.999778 -0.021076 0.000000
vn 0.999778 -0.021076 0.000000
vn 0.999778 -0.021076 0.000000
vn 0.999778 -0.021076 0.000000
vn 0.000000 0.091972 0.995762
vn 0.000000 0.091972 0.995762
vn 0.000000 0.091972 0.995762
vn 0.000000 0.091972 0.995762
vn -0.999529 0.030703 0.000000
vn -0.999529 0.030703 0.000000
vn -0.999529 0.030703 0.000000
vn -0.999529 0.030703 0.000000
vn 0.000000 0.091972 -0.995762
vn 0.000000 0.091972 -0.995762
vn 0.000000 0.091972 -0.995762
vn 0.000000 0.091972 -0.995762
vn 0.999778 -0.021076 0.000000
vn 0.999778 -0.021076 0.000000
vn 0.999778 -0.021076 0.000000
vn 0.999778 -0.021076 0.000000
vn 0.000000 -0.084928 0.996387
vn 0.000000 -0.084928 0.996387
vn 0.000000 -0.084928 0.996387
vn 0.000000 -0.084928 0.996387
vn -0.999529 0.030703 0.000000
vn -0.999529 0.030703 0.000000
vn -0.999529 0.030703 0.000000
vn -0.999529 0.030703 0.000000
vn 0.000000 -0.999656 -0.026225
vn 0.000000 -0.999656 -0.026225
vn 0.000000 -0.999656 -0.026225
vn 0.000000 -0.999656 -0.026225
vn 0.000000 0.999979 -0.006505
vn 0.000000 0.999979 -0.006505
vn 0.000000 0.999979 -0.006505
vn 0.000000 0.999979 -0.006505
vn 0.000000 0.999979 0.006506
vn 0.000000 0.999979 0.006506
vn 0.000000 0.999979 0.006506
vn 0.000000 0.999979 0.006506
vn 0.000000 -0.999656 0.026224
vn 0.000000 -0.999656 0.026224
vn 0.000000 -0.999656 0.026224
vn 0.000000 -0.999656 0.026224
vn -0.015263 -0.999883 0.000000
vn -0.015263 -0.999884 0.000000
vn -0.015263 -0.999884 0.000000
vn -0.015263 -0.999884 0.000000
vn -0.006324 0.999980 0.000000
vn -0.006324 0.999980 0.000000
vn -0.006324 0.999980 0.000000
vn -0.006324 0.999980 0.000000
vn 0.015263 -0.999884 0.000000
vn 0.015263 -0.999884 0.000000
vn 0.015263 -0.999884 0.000000
vn 0.015263 -0.999883 0.000000
vn 0.006324 0.999980 0.000000
vn 0.006324 0.999980 0.000000
vn 0.006324 0.999980 0.000000
vn 0.006324 0.999980 0.000000
vn 0.015263 -0.999884 0.000000
vn 0.015263 -0.999884 0.000000
vn 0.015263 -0.999884 0.000000
vn 0.015263 -0.999884 0.000000
vn 0.006324 0.999980 0.000000
vn 0.006324 0.999980 0.000000
vn 0.006324 0.999980 0.000000
vn 0.006324 0.999980 0.000000
vn -0.015263 -0.999884 0.000000
vn -0.015263 -0.999884 0.000000
vn -0.015263 -0.999884 0.000000
vn -0.015263 -0.999883 0.000000
vn -0.006324 0.999980 0.000000
vn -0.006324 0.999980 0.000000
vn -0.006324 0.999980 0.000000
vn -0.006324 0.999980 0.000000
vn 0.015263 -0.999884 0.000000
vn 0.015263 -0.999884 0.000000
vn 0.015263 -0.999884 0.000000
vn 0.015263 -0.999884 0.000000
vn 0.006324 0.999980 0.000000
vn 0.006324 0.999980 0.000000
vn 0.006324 0.999980 0.000000
vn 0.006324 0.999980 0.000000
vn -0.015263 -0.999884 0.000000
vn -0.015263 -0.999884 0.000000
vn -0.015263 -0.999884 0.000000
vn -0.015263 -0.999884 0.000000
vn -0.006324 0.999980 0.000000
vn -0.006324 0.999980 0.000000
vn -0.006324 0.999980 0.000000
vn -0.006324 0.999980 0.000000
vn 0.000000 -0.999656 -0.026224
vn 0.000000 -0.999656 -0.026224
vn 0.000000 -0.999656 -0.026224
vn 0.000000 -0.999656 -0.026224
vn 0.000000 0.999979 -0.006505
vn 0.000000 0.999979 -0.006505
vn 0.000000 0.999979 -0.006505
vn 0.000000 0.999979 -0.006505
vn 0.000000 0.999979 0.006505
vn 0.000000 0.999979 0.006505
vn 0.000000 0.999979 0.006505
vn 0.000000 0.999979 0.006505
vn 0.000000 -0.999656 0.026224
vn 0.000000 -0.999656 0.026224
vn 0.000000 -0.999656 0.026224
vn 0.000000 -0.999656 0.026224
vn 0.000000 -0.999656 -0.026225
vn 0.000000 -0.999656 -0.026225
vn 0.000000 -0.999656 -0.026225
vn 0.000000 -0.999656 -0.026225
vn 0.000000 0.999979 -0.006505
vn 0.000000 0.999979 -0.006505
vn 0.000000 0.999979 -0.006505
vn 0.000000 0.999979 -0.006505
vn 0.000000 0.999979 0.006505
vn 0.000000 0.999979 0.006505
vn 0.000000 0.999979 0.006505
vn 0.000000 0.999979 0.006505
vn 0.000000 -0.999656 0.026226
vn 0.000000 -0.999656 0.026226
vn 0.000000 -0.999656 0.026226
vn 0.000000 -0.999656 0.026226
s 1
g polySurface6
usemtl lambert11SG
f 49/1/1 50/2/2 51/3/3 52/4/4
s 2
usemtl lambert10SG
f 26/9/5 4/10/6 13/11/7 25/12/8
s 3
usemtl lambert11SG
f 53/37/9 54/38/10 55/39/11 56/40/12
s off
f 33/45/13 34/46/14 35/47/15 36/48/16
s 4
f 50/49/17 57/50/18 58/51/19 51/52/20
s 5
f 59/57/21 60/58/22 61/59/23 62/60/24
s 2
usemtl lambert10SG
f 32/16/25 9/17/26 6/23/27 31/24/28
s 5
usemtl lambert11SG
f 63/63/29 64/61/30 65/62/31 66/64/32
s off
f 37/65/33 38/66/34 39/67/35 40/68/36
s 4
f 68/54/37 67/53/38 55/55/39 54/56/40
s 2
usemtl lambert10SG
f 32/16/25 25/12/8 13/11/7 9/17/26
s 5
usemtl lambert11SG
f 64/61/30 59/57/21 62/60/24 65/62/31
s 6
f 29/69/41 12/70/42 16/71/43 28/72/44
s 4
f 58/51/19 57/50/18 67/53/38 68/54/37
s 2
usemtl lambert10SG
f 3/25/45 18/18/46 17/19/47 14/26/48
s 1
usemtl lambert11SG
f 60/7/49 69/5/50 70/6/51 61/8/52
s off
f 41/97/53 42/98/54 43/99/55 44/100/56
s 6
f 11/85/57 21/75/58 20/76/59 15/86/60
s off
f 45/101/61 46/102/62 47/103/63 48/104/64
s 3
f 66/43/65 71/41/66 72/42/67 63/44/68
s 2
usemtl lambert10SG
f 10/29/69 24/22/70 23/30/71 5/33/72
f 14/26/48 17/19/47 24/22/70 10/29/69
f 18/18/46 26/9/5 25/12/8 17/19/47
s 1
usemtl lambert11SG
f 69/5/50 49/1/1 52/4/4 70/6/51
s 6
f 20/76/59 28/72/44 27/83/73 19/84/74
f 21/75/58 29/69/41 28/72/44 20/76/59
f 22/81/75 30/82/76 29/69/41 21/75/58
s 3
f 71/41/66 53/37/9 56/40/12 72/42/67
s 2
usemtl lambert10SG
f 24/22/70 32/16/25 31/24/28 23/30/71
f 24/22/70 17/19/47 25/12/8 32/16/25
s off
usemtl lambert11SG
f 28/105/77 16/106/78 34/107/79 33/108/80
f 16/109/81 2/110/82 35/111/83 34/112/84
f 2/113/85 27/114/86 36/115/87 35/116/88
f 27/117/89 28/118/90 33/119/91 36/120/92
f 30/121/93 8/122/94 38/123/95 37/124/96
f 8/125/97 12/126/98 39/127/99 38/128/100
f 12/129/101 29/130/102 40/131/103 39/132/104
f 29/133/105 30/134/106 37/135/107 40/136/108
f 15/137/109 20/138/110 42/139/111 41/140/112
f 20/141/113 19/142/114 43/143/115 42/144/116
f 19/145/117 1/146/118 44/147/119 43/148/120
f 1/149/121 15/150/122 41/151/123 44/152/124
f 7/153/125 22/154/126 46/155/127 45/156/128
f 22/157/129 21/158/130 47/159/131 46/160/132
f 21/161/133 11/162/134 48/163/135 47/164/136
f 11/165/137 7/166/138 45/167/139 48/168/140
f 27/83/141 2/79/142 50/80/143 49/88/144
f 4/10/145 26/9/146 52/13/147 51/14/148
f 31/24/149 6/23/150 54/28/151 53/31/152
f 8/77/153 30/82/154 56/87/155 55/78/156
f 2/79/157 16/71/158 57/74/159 50/80/160
f 13/11/161 4/10/162 51/14/163 58/15/164
f 15/86/165 1/95/166 60/96/167 59/91/168
f 3/25/169 14/26/170 62/32/171 61/27/172
f 7/93/173 11/85/174 64/92/175 63/94/176
f 10/29/177 5/33/178 66/36/179 65/34/180
f 12/70/181 8/77/182 55/78/183 67/73/184
f 6/23/185 9/17/186 68/21/187 54/28/188
f 11/85/189 15/86/190 59/91/191 64/92/192
f 14/26/193 10/29/194 65/34/195 62/32/196
f 16/71/197 12/70/198 67/73/199 57/74/200
f 9/17/201 13/11/202 58/15/203 68/21/204
f 1/95/205 19/84/206 69/90/207 60/96/208
f 18/18/209 3/25/210 61/27/211 70/20/212
f 5/33/213 23/30/214 71/35/215 66/36/216
f 22/81/217 7/93/218 63/94/219 72/89/220
f 19/84/221 27/83/222 49/88/223 69/90/224
f 26/9/225 18/18/226 70/20/227 52/13/228
f 23/30/229 31/24/230 53/31/231 71/35/232
f 30/82/233 22/81/234 72/89/235 56/87/236
