# This file uses centimeters as units for non-parametric coordinates.

mtllib garage-workbench.mtl
g default
v 0.000000 1.400847 0.000000
v 0.948668 1.400847 0.000000
v 0.000000 1.475686 0.000000
v 0.948668 1.475686 0.000000
v 0.000000 1.475686 -2.852556
v 0.948668 1.475686 -2.852556
v 0.000000 1.400847 -2.852556
v 0.948668 1.400847 -2.852556
v 0.948668 1.475686 -2.742494
v 0.000000 1.475686 -2.742494
v 0.000000 1.400847 -2.742494
v 0.948668 1.400847 -2.742494
v 0.948668 1.475686 -0.110062
v 0.000000 1.475686 -0.110062
v 0.000000 1.400847 -0.110062
v 0.948668 1.400847 -0.110062
v 0.148804 1.475686 -0.110062
v 0.148804 1.475686 0.000000
v 0.148804 1.400847 0.000000
v 0.148804 1.400847 -0.110062
v 0.148804 1.400847 -2.742494
v 0.148804 1.400847 -2.852556
v 0.148804 1.475686 -2.852556
v 0.148804 1.475686 -2.742494
v 0.799863 1.475686 -0.110062
v 0.799863 1.475686 0.000000
v 0.799863 1.400847 0.000000
v 0.799863 1.400847 -0.110062
v 0.799863 1.400847 -2.742494
v 0.799863 1.400847 -2.852556
v 0.799863 1.475686 -2.852556
v 0.799863 1.475686 -2.742494
v 0.799863 0.743366 -0.110062
v 0.948668 0.743366 -0.110062
v 0.948668 0.743366 0.000000
v 0.799863 0.743366 0.000000
v 0.799863 0.743366 -2.852556
v 0.948668 0.743366 -2.852556
v 0.948668 0.743366 -2.742494
v 0.799863 0.743366 -2.742494
v 0.000000 0.743366 -0.110062
v 0.148804 0.743366 -0.110062
v 0.148804 0.743366 0.000000
v 0.000000 0.743366 0.000000
v 0.000000 0.743366 -2.852556
v 0.148804 0.743366 -2.852556
v 0.148804 0.743366 -2.742494
v 0.000000 0.743366 -2.742494
v 0.799863 0.667952 0.000000
v 0.948668 0.667952 0.000000
v 0.948668 0.667952 -2.852556
v 0.799863 0.667952 -2.852556
v 0.948668 0.667952 -0.110062
v 0.000000 0.667952 -0.110062
v 0.000000 0.667952 0.000000
v 0.000000 0.667952 -2.852556
v 0.000000 0.667952 -2.742494
v 0.948668 0.667952 -2.742494
v 0.799863 0.667952 -2.742494
v 0.799863 0.667952 -0.110062
v 0.148804 0.667952 0.000000
v 0.148804 0.667952 -2.742494
v 0.148804 0.667952 -0.110062
v 0.148804 0.667952 -2.852556
v 0.799863 0.000000 0.000000
v 0.948668 0.000000 0.000000
v 0.799863 0.000000 -2.852556
v 0.948668 0.000000 -2.852556
v 0.948668 0.000000 -0.110062
v 0.000000 0.000000 -0.110062
v 0.000000 0.000000 0.000000
v 0.000000 0.000000 -2.852556
v 0.000000 0.000000 -2.742494
v 0.948668 0.000000 -2.742494
v 0.799863 0.000000 -2.742494
v 0.799863 0.000000 -0.110062
v 0.148804 0.000000 0.000000
v 0.148804 0.000000 -2.742494
v 0.148804 0.000000 -0.110062
v 0.148804 0.000000 -2.852556
v 0.832025 1.400131 0.027268
v 0.995532 1.400131 0.027268
v 0.995532 1.476402 0.027268
v 0.832025 1.476402 0.027268
v 0.832025 1.476402 -2.879824
v 0.995532 1.476402 -2.879824
v 0.995532 1.400131 -2.879824
v 0.832025 1.400131 -2.879824
v 0.995532 1.400131 -0.084898
v 0.995532 1.476402 -0.084898
v -0.046864 1.400131 -0.084898
v -0.046864 1.400131 0.027268
v -0.046864 1.476402 0.027268
v -0.046864 1.476402 -0.084898
v -0.046864 1.400131 -2.879824
v -0.046864 1.400131 -2.767658
v -0.046864 1.476402 -2.767658
v -0.046864 1.476402 -2.879824
v 0.995532 1.400131 -2.767658
v 0.995532 1.476402 -2.767658
v 0.116642 1.400131 0.027268
v 0.116642 1.476402 0.027268
v 0.116642 1.476402 -2.879824
v 0.116642 1.400131 -2.879824
vt 0.541667 0.000000
vt 0.625000 0.000000
vt 0.625000 0.250000
vt 0.541667 0.250000
vt 0.625000 0.333333
vt 0.541667 0.333333
vt 0.541667 0.500000
vt 0.625000 0.500000
vt 0.625000 0.750000
vt 0.541667 0.750000
vt 0.541667 0.916667
vt 0.625000 0.916667
vt 0.625000 1.000000
vt 0.541667 1.000000
vt 0.708333 0.000000
vt 0.708333 0.250000
vt 0.291667 0.000000
vt 0.375000 0.000000
vt 0.375000 0.250000
vt 0.291667 0.250000
vt 0.541667 0.416667
vt 0.625000 0.416667
vt 0.125000 0.000000
vt 0.208333 0.000000
vt 0.208333 0.250000
vt 0.125000 0.250000
vt 0.541667 0.750000
vt 0.625000 0.750000
vt 0.625000 0.833333
vt 0.541667 0.833333
vt 0.791667 0.250000
vt 0.791667 0.000000
vt 0.875000 0.000000
vt 0.875000 0.250000
vt 0.541667 0.833333
vt 0.625000 0.833333
vt 0.625000 0.916667
vt 0.541667 0.916667
vt 0.458333 0.250000
vt 0.458333 0.333333
vt 0.375000 0.333333
vt 0.458333 0.000000
vt 0.375000 0.916667
vt 0.458333 0.916667
vt 0.458333 1.000000
vt 0.375000 1.000000
vt 0.375000 0.833333
vt 0.458333 0.833333
vt 0.458333 0.916667
vt 0.375000 0.916667
vt 0.375000 0.750000
vt 0.458333 0.750000
vt 0.458333 0.833333
vt 0.375000 0.833333
vt 0.375000 0.500000
vt 0.458333 0.500000
vt 0.458333 0.750000
vt 0.375000 0.750000
vt 0.375000 0.416667
vt 0.458333 0.416667
vt 0.541667 1.000000
vt 0.458333 1.000000
vt 0.625000 1.000000
vt 0.375000 1.000000
vt 0.541667 0.000000
vt 0.625000 0.000000
vt 0.625000 0.250000
vt 0.541667 0.250000
vt 0.541667 0.500000
vt 0.625000 0.500000
vt 0.625000 0.750000
vt 0.541667 0.750000
vt 0.708333 0.000000
vt 0.708333 0.250000
vt 0.291667 0.000000
vt 0.375000 0.000000
vt 0.375000 0.250000
vt 0.291667 0.250000
vt 0.125000 0.000000
vt 0.208333 0.000000
vt 0.208333 0.250000
vt 0.125000 0.250000
vt 0.791667 0.250000
vt 0.791667 0.000000
vt 0.875000 0.000000
vt 0.875000 0.250000
vt 0.541667 0.416667
vt 0.541667 0.333333
vt 0.625000 0.333333
vt 0.625000 0.416667
vt 0.541667 0.833333
vt 0.625000 0.833333
vt 0.625000 0.916667
vt 0.541667 0.916667
vt 0.458333 0.000000
vt 0.458333 0.250000
vt 0.375000 0.833333
vt 0.458333 0.833333
vt 0.458333 0.916667
vt 0.375000 0.916667
vt 0.375000 0.500000
vt 0.458333 0.500000
vt 0.458333 0.750000
vt 0.375000 0.750000
vt 0.375000 0.333333
vt 0.458333 0.333333
vt 0.458333 0.416667
vt 0.375000 0.416667
vt 0.541667 1.000000
vt 0.458333 1.000000
vt 0.000000 0.000000
vt 1.000000 0.000000
vt 1.000000 1.000000
vt 0.000000 1.000000
vt 0.000000 0.000000
vt 1.000000 0.000000
vt 1.000000 1.000000
vt 0.000000 1.000000
vt 0.000000 0.000000
vt 1.000000 0.000000
vt 1.000000 1.000000
vt 0.000000 1.000000
vt 0.000000 0.000000
vt 1.000000 0.000000
vt 1.000000 1.000000
vt 0.000000 1.000000
vt 0.000000 0.000000
vt 1.000000 0.000000
vt 1.000000 1.000000
vt 0.000000 1.000000
vt 0.000000 0.000000
vt 1.000000 0.000000
vt 1.000000 1.000000
vt 0.000000 1.000000
vt 0.000000 0.000000
vt 1.000000 0.000000
vt 1.000000 1.000000
vt 0.000000 1.000000
vt 0.000000 0.000000
vt 1.000000 0.000000
vt 1.000000 1.000000
vt 0.000000 1.000000
vt 0.000000 0.000000
vt 1.000000 0.000000
vt 1.000000 1.000000
vt 0.000000 1.000000
vt 0.000000 0.000000
vt 1.000000 0.000000
vt 1.000000 1.000000
vt 0.000000 1.000000
vt 0.000000 0.000000
vt 1.000000 0.000000
vt 1.000000 1.000000
vt 0.000000 1.000000
vt 0.000000 0.000000
vt 1.000000 0.000000
vt 1.000000 1.000000
vt 0.000000 1.000000
vt 0.000000 0.000000
vt 1.000000 0.000000
vt 1.000000 1.000000
vt 0.000000 1.000000
vt 0.000000 0.000000
vt 1.000000 0.000000
vt 1.000000 1.000000
vt 0.000000 1.000000
vt 0.000000 0.000000
vt 1.000000 0.000000
vt 1.000000 1.000000
vt 0.000000 1.000000
vt 0.000000 0.000000
vt 1.000000 0.000000
vt 1.000000 1.000000
vt 0.000000 1.000000
vt 0.541667 0.000000
vt 0.625000 0.000000
vt 0.625000 0.250000
vt 0.541667 0.250000
vt 0.541667 0.500000
vt 0.625000 0.500000
vt 0.625000 0.750000
vt 0.541667 0.750000
vt 0.708333 0.000000
vt 0.708333 0.250000
vt 0.291667 0.000000
vt 0.375000 0.000000
vt 0.375000 0.250000
vt 0.291667 0.250000
vt 0.125000 0.000000
vt 0.208333 0.000000
vt 0.208333 0.250000
vt 0.125000 0.250000
vt 0.791667 0.000000
vt 0.875000 0.000000
vt 0.875000 0.250000
vt 0.791667 0.250000
vt 0.458333 0.000000
vt 0.458333 0.250000
vt 0.375000 0.500000
vt 0.458333 0.500000
vt 0.458333 0.750000
vt 0.375000 0.750000
vn 0.000000 0.000000 1.000000
vn 0.000000 0.000000 1.000000
vn 0.000000 0.000000 1.000000
vn 0.000000 0.000000 1.000000
vn 0.000000 1.000000 0.000000
vn 0.000000 1.000000 0.000000
vn 0.000000 1.000000 0.000000
vn 0.000000 1.000000 0.000000
vn 0.000000 0.000000 -1.000000
vn 0.000000 0.000000 -1.000000
vn 0.000000 0.000000 -1.000000
vn 0.000000 0.000000 -1.000000
vn 0.000000 -1.000000 0.000000
vn 0.000000 -1.000000 0.000000
vn 0.000000 -1.000000 0.000000
vn 0.000000 -1.000000 0.000000
vn 1.000000 0.000000 0.000000
vn 1.000000 0.000000 0.000000
vn 1.000000 0.000000 0.000000
vn 1.000000 0.000000 0.000000
vn -1.000000 0.000000 0.000000
vn -1.000000 0.000000 0.000000
vn -1.000000 0.000000 0.000000
vn -1.000000 0.000000 0.000000
vn 0.000000 1.000000 0.000000
vn 0.000000 1.000000 0.000000
vn 0.000000 1.000000 0.000000
vn 0.000000 1.000000 0.000000
vn -1.000000 0.000000 0.000000
vn -1.000000 0.000000 0.000000
vn -1.000000 0.000000 0.000000
vn -1.000000 0.000000 0.000000
vn 0.000000 -1.000000 0.000000
vn 0.000000 -1.000000 0.000000
vn 0.000000 -1.000000 0.000000
vn 0.000000 -1.000000 0.000000
vn 1.000000 0.000000 0.000000
vn 1.000000 0.000000 0.000000
vn 1.000000 0.000000 0.000000
vn 1.000000 0.000000 0.000000
vn 0.000000 -1.000000 0.000000
vn 0.000000 -1.000000 0.000000
vn 0.000000 -1.000000 0.000000
vn 0.000000 -1.000000 0.000000
vn 0.000000 1.000000 0.000000
vn 0.000000 1.000000 0.000000
vn 0.000000 1.000000 0.000000
vn 0.000000 1.000000 0.000000
vn 0.000000 0.000000 1.000000
vn 0.000000 0.000000 1.000000
vn 0.000000 0.000000 1.000000
vn 0.000000 0.000000 1.000000
vn 0.000000 -1.000000 0.000000
vn 0.000000 -1.000000 0.000000
vn 0.000000 -1.000000 0.000000
vn 0.000000 -1.000000 0.000000
vn 0.000000 -1.000000 0.000000
vn 0.000000 -1.000000 0.000000
vn 0.000000 -1.000000 0.000000
vn 0.000000 -1.000000 0.000000
vn 0.000000 -1.000000 0.000000
vn 0.000000 -1.000000 0.000000
vn 0.000000 -1.000000 0.000000
vn 0.000000 -1.000000 0.000000
vn 0.000000 0.000000 -1.000000
vn 0.000000 0.000000 -1.000000
vn 0.000000 0.000000 -1.000000
vn 0.000000 0.000000 -1.000000
vn 0.000000 1.000000 0.000000
vn 0.000000 1.000000 0.000000
vn 0.000000 1.000000 0.000000
vn 0.000000 1.000000 0.000000
vn 0.000000 -1.000000 0.000000
vn 0.000000 -1.000000 0.000000
vn 0.000000 -1.000000 0.000000
vn 0.000000 -1.000000 0.000000
vn 0.000000 0.000000 -1.000000
vn 0.000000 0.000000 -1.000000
vn 0.000000 0.000000 -1.000000
vn 0.000000 0.000000 -1.000000
vn 1.000000 0.000000 0.000000
vn 1.000000 0.000000 0.000000
vn 1.000000 0.000000 0.000000
vn 1.000000 0.000000 0.000000
vn 0.000000 0.000000 1.000000
vn 0.000000 0.000000 1.000000
vn 0.000000 0.000000 1.000000
vn 0.000000 0.000000 1.000000
vn -1.000000 0.000000 0.000000
vn -1.000000 0.000000 0.000000
vn -1.000000 0.000000 0.000000
vn -1.000000 0.000000 0.000000
vn 0.000000 0.000000 -1.000000
vn 0.000000 0.000000 -1.000000
vn 0.000000 0.000000 -1.000000
vn 0.000000 0.000000 -1.000000
vn 1.000000 0.000000 0.000000
vn 1.000000 0.000000 0.000000
vn 1.000000 0.000000 0.000000
vn 1.000000 0.000000 0.000000
vn 0.000000 0.000000 1.000000
vn 0.000000 0.000000 1.000000
vn 0.000000 0.000000 1.000000
vn 0.000000 0.000000 1.000000
vn -1.000000 0.000000 0.000000
vn -1.000000 0.000000 0.000000
vn -1.000000 0.000000 0.000000
vn -1.000000 0.000000 0.000000
vn 0.000000 0.000000 -1.000000
vn 0.000000 0.000000 -1.000000
vn 0.000000 0.000000 -1.000000
vn 0.000000 0.000000 -1.000000
vn 1.000000 0.000000 0.000000
vn 1.000000 0.000000 0.000000
vn 1.000000 0.000000 0.000000
vn 1.000000 0.000000 0.000000
vn 0.000000 0.000000 1.000000
vn 0.000000 0.000000 1.000000
vn 0.000000 0.000000 1.000000
vn 0.000000 0.000000 1.000000
vn -1.000000 0.000000 0.000000
vn -1.000000 0.000000 0.000000
vn -1.000000 0.000000 0.000000
vn -1.000000 0.000000 0.000000
vn 0.000000 0.000000 -1.000000
vn 0.000000 0.000000 -1.000000
vn 0.000000 0.000000 -1.000000
vn 0.000000 0.000000 -1.000000
vn 1.000000 0.000000 0.000000
vn 1.000000 0.000000 0.000000
vn 1.000000 0.000000 0.000000
vn 1.000000 0.000000 0.000000
vn 0.000000 0.000000 1.000000
vn 0.000000 0.000000 1.000000
vn 0.000000 0.000000 1.000000
vn 0.000000 0.000000 1.000000
vn -1.000000 0.000000 0.000000
vn -1.000000 0.000000 0.000000
vn -1.000000 0.000000 0.000000
vn -1.000000 0.000000 0.000000
vn 0.000000 0.000000 1.000000
vn 0.000000 0.000000 1.000000
vn 0.000000 0.000000 1.000000
vn 0.000000 0.000000 1.000000
vn 0.000000 0.000000 -1.000000
vn 0.000000 0.000000 -1.000000
vn 0.000000 0.000000 -1.000000
vn 0.000000 0.000000 -1.000000
vn 1.000000 0.000000 0.000000
vn 1.000000 0.000000 0.000000
vn 1.000000 0.000000 0.000000
vn 1.000000 0.000000 0.000000
vn -1.000000 0.000000 0.000000
vn -1.000000 0.000000 0.000000
vn -1.000000 0.000000 0.000000
vn -1.000000 0.000000 0.000000
vn -1.000000 0.000000 0.000000
vn -1.000000 0.000000 0.000000
vn -1.000000 0.000000 0.000000
vn -1.000000 0.000000 0.000000
vn 1.000000 0.000000 0.000000
vn 1.000000 0.000000 0.000000
vn 1.000000 0.000000 0.000000
vn 1.000000 0.000000 0.000000
vn 0.000000 1.000000 0.000000
vn 0.000000 1.000000 0.000000
vn 0.000000 1.000000 0.000000
vn 0.000000 1.000000 0.000000
vn 0.000000 -1.000000 0.000000
vn 0.000000 -1.000000 0.000000
vn 0.000000 -1.000000 0.000000
vn 0.000000 -1.000000 0.000000
vn 0.000000 0.000000 1.000000
vn 0.000000 0.000000 1.000000
vn 0.000000 0.000000 1.000000
vn 0.000000 0.000000 1.000000
vn 0.000000 -1.000000 0.000000
vn 0.000000 -1.000000 0.000000
vn 0.000000 -1.000000 0.000000
vn 0.000000 -1.000000 0.000000
vn 0.000000 0.000000 -1.000000
vn 0.000000 0.000000 -1.000000
vn 0.000000 0.000000 -1.000000
vn 0.000000 0.000000 -1.000000
vn 0.000000 1.000000 0.000000
vn 0.000000 1.000000 0.000000
vn 0.000000 1.000000 0.000000
vn 0.000000 1.000000 0.000000
vn 0.000000 1.000000 0.000000
vn 0.000000 1.000000 0.000000
vn 0.000000 -1.000000 0.000000
vn 0.000000 -1.000000 0.000000
vn 0.000000 -1.000000 0.000000
vn 0.000000 -1.000000 0.000000
vn 0.000000 1.000000 0.000000
vn 0.000000 1.000000 0.000000
vn 0.000000 0.000000 1.000000
vn 0.000000 0.000000 1.000000
vn 0.000000 0.000000 1.000000
vn 0.000000 0.000000 1.000000
vn 0.000000 0.000000 -1.000000
vn 0.000000 0.000000 -1.000000
vn 0.000000 0.000000 -1.000000
vn 0.000000 0.000000 -1.000000
vn 1.000000 0.000000 0.000000
vn 1.000000 0.000000 0.000000
vn 1.000000 0.000000 0.000000
vn 1.000000 0.000000 0.000000
vn -1.000000 0.000000 0.000000
vn -1.000000 0.000000 0.000000
vn -1.000000 0.000000 0.000000
vn -1.000000 0.000000 0.000000
vn -1.000000 0.000000 0.000000
vn -1.000000 0.000000 0.000000
vn -1.000000 0.000000 0.000000
vn -1.000000 0.000000 0.000000
vn 1.000000 0.000000 0.000000
vn 1.000000 0.000000 0.000000
vn 1.000000 0.000000 0.000000
vn 1.000000 0.000000 0.000000
vn 0.000000 0.000000 1.000000
vn 0.000000 0.000000 1.000000
vn 0.000000 0.000000 1.000000
vn 0.000000 0.000000 1.000000
vn 0.000000 0.000000 -1.000000
vn 0.000000 0.000000 -1.000000
vn 0.000000 0.000000 -1.000000
vn 0.000000 0.000000 -1.000000
vn 0.000000 0.000000 1.000000
vn 0.000000 0.000000 1.000000
vn 0.000000 0.000000 1.000000
vn 0.000000 0.000000 1.000000
vn 0.000000 0.000000 1.000000
vn 0.000000 0.000000 1.000000
vn 0.000000 0.000000 1.000000
vn 0.000000 0.000000 1.000000
vn 0.000000 0.000000 -1.000000
vn 0.000000 0.000000 -1.000000
vn 0.000000 0.000000 -1.000000
vn 0.000000 0.000000 -1.000000
vn 0.000000 0.000000 -1.000000
vn 0.000000 0.000000 -1.000000
vn 0.000000 0.000000 -1.000000
vn 0.000000 0.000000 -1.000000
vn -1.000000 0.000000 0.000000
vn -1.000000 0.000000 0.000000
vn -1.000000 0.000000 0.000000
vn -1.000000 0.000000 0.000000
vn 1.000000 0.000000 0.000000
vn 1.000000 0.000000 0.000000
vn 1.000000 0.000000 0.000000
vn 1.000000 0.000000 0.000000
vn -1.000000 0.000000 0.000000
vn -1.000000 0.000000 0.000000
vn -1.000000 0.000000 0.000000
vn -1.000000 0.000000 0.000000
vn 1.000000 0.000000 0.000000
vn 1.000000 0.000000 0.000000
vn 1.000000 0.000000 0.000000
vn 1.000000 0.000000 0.000000
vn 0.000000 -1.000000 0.000000
vn 0.000000 -1.000000 0.000000
vn 0.000000 -1.000000 0.000000
vn 0.000000 -1.000000 0.000000
vn 0.000000 -1.000000 0.000000
vn 0.000000 -1.000000 0.000000
vn 0.000000 -1.000000 0.000000
vn 0.000000 -1.000000 0.000000
vn 0.000000 -1.000000 0.000000
vn 0.000000 -1.000000 0.000000
vn 0.000000 -1.000000 0.000000
vn 0.000000 -1.000000 0.000000
vn 0.000000 -1.000000 0.000000
vn 0.000000 -1.000000 0.000000
vn 0.000000 -1.000000 0.000000
vn 0.000000 -1.000000 0.000000
vn 0.000000 -0.999656 -0.026225
vn 0.000000 -0.999656 -0.026225
vn 0.000000 -0.999656 -0.026225
vn 0.000000 -0.999656 -0.026225
vn 0.000000 0.999656 -0.026224
vn 0.000000 0.999656 -0.026224
vn 0.000000 0.999656 -0.026224
vn 0.000000 0.999656 -0.026224
vn 0.000000 0.999656 0.026228
vn 0.000000 0.999656 0.026228
vn 0.000000 0.999656 0.026228
vn 0.000000 0.999656 0.026228
vn 0.000000 -0.999656 0.026224
vn 0.000000 -0.999656 0.026224
vn 0.000000 -0.999656 0.026224
vn 0.000000 -0.999656 0.026224
vn -0.015263 -0.999883 0.000000
vn -0.015263 -0.999884 0.000000
vn -0.015263 -0.999884 0.000000
vn -0.015263 -0.999884 0.000000
vn -0.015263 0.999884 0.000000
vn -0.015263 0.999883 0.000000
vn -0.015263 0.999884 0.000000
vn -0.015263 0.999884 0.000000
vn 0.015263 -0.999884 0.000000
vn 0.015263 -0.999884 0.000000
vn 0.015263 -0.999884 0.000000
vn 0.015263 -0.999883 0.000000
vn 0.015263 0.999884 0.000000
vn 0.015263 0.999884 0.000000
vn 0.015263 0.999883 0.000000
vn 0.015263 0.999884 0.000000
vn 0.015263 -0.999884 0.000000
vn 0.015263 -0.999884 0.000000
vn 0.015263 -0.999884 0.000000
vn 0.015263 -0.999884 0.000000
vn 0.015263 0.999884 0.000000
vn 0.015263 0.999884 0.000000
vn 0.015263 0.999884 0.000000
vn 0.015263 0.999884 0.000000
vn -0.015263 -0.999884 0.000000
vn -0.015263 -0.999884 0.000000
vn -0.015263 -0.999884 0.000000
vn -0.015263 -0.999883 0.000000
vn -0.015263 0.999884 0.000000
vn -0.015263 0.999884 0.000000
vn -0.015263 0.999883 0.000000
vn -0.015263 0.999884 0.000000
vn 0.015263 -0.999884 0.000000
vn 0.015263 -0.999884 0.000000
vn 0.015263 -0.999884 0.000000
vn 0.015263 -0.999884 0.000000
vn 0.015263 0.999884 0.000000
vn 0.015263 0.999884 0.000000
vn 0.015263 0.999884 0.000000
vn 0.015263 0.999884 0.000000
vn -0.015263 -0.999884 0.000000
vn -0.015263 -0.999884 0.000000
vn -0.015263 -0.999884 0.000000
vn -0.015263 -0.999884 0.000000
vn -0.015263 0.999884 0.000000
vn -0.015263 0.999884 0.000000
vn -0.015263 0.999884 0.000000
vn -0.015263 0.999884 0.000000
vn 0.000000 -0.999656 -0.026224
vn 0.000000 -0.999656 -0.026224
vn 0.000000 -0.999656 -0.026224
vn 0.000000 -0.999656 -0.026224
vn 0.000000 0.999656 -0.026230
vn 0.000000 0.999656 -0.026230
vn 0.000000 0.999656 -0.026230
vn 0.000000 0.999656 -0.026230
vn 0.000000 0.999656 0.026229
vn 0.000000 0.999656 0.026229
vn 0.000000 0.999656 0.026229
vn 0.000000 0.999656 0.026229
vn 0.000000 -0.999656 0.026224
vn 0.000000 -0.999656 0.026224
vn 0.000000 -0.999656 0.026224
vn 0.000000 -0.999656 0.026224
vn 0.000000 -0.999656 -0.026225
vn 0.000000 -0.999656 -0.026225
vn 0.000000 -0.999656 -0.026225
vn 0.000000 -0.999656 -0.026225
vn 0.000000 0.999656 -0.026226
vn 0.000000 0.999656 -0.026226
vn 0.000000 0.999656 -0.026226
vn 0.000000 0.999656 -0.026226
vn 0.000000 0.999656 0.026225
vn 0.000000 0.999656 0.026225
vn 0.000000 0.999656 0.026225
vn 0.000000 0.999656 0.026225
vn 0.000000 -0.999656 0.026226
vn 0.000000 -0.999656 0.026226
vn 0.000000 -0.999656 0.026226
vn 0.000000 -0.999656 0.026226
s 1
g polySurface5
usemtl lambert10SG
f 81/175/1 82/176/2 83/177/3 84/178/4
s 2
f 26/4/5 4/3/6 13/5/7 25/6/8
s 3
f 85/179/9 86/180/10 87/181/11 88/182/12
s off
usemtl lambert11SG
f 33/11/13 34/12/14 35/13/15 36/14/16
s 4
usemtl lambert10SG
f 82/176/17 89/183/18 90/184/19 83/177/20
s 5
f 91/185/21 92/186/22 93/187/23 94/188/24
s 2
f 32/21/25 9/22/26 6/8/27 31/7/28
s 5
f 95/189/29 96/190/30 97/191/31 98/192/32
s off
usemtl lambert11SG
f 37/27/33 38/28/34 39/29/35 40/30/36
s 4
usemtl lambert10SG
f 100/196/37 99/193/38 87/194/39 86/195/40
s 2
f 32/21/25 25/6/8 13/5/7 9/22/26
s 5
f 96/190/30 91/185/21 94/188/24 97/191/31
s 6
f 29/35/41 12/36/42 16/37/43 28/38/44
s 4
f 90/184/19 89/183/18 99/193/38 100/196/37
s 2
f 3/19/45 18/39/46 17/40/47 14/41/48
s 1
f 92/186/49 101/197/50 102/198/51 93/187/52
s off
usemtl lambert11SG
f 41/43/53 42/44/54 43/45/55 44/46/56
s 6
usemtl lambert10SG
f 11/47/57 21/48/58 20/49/59 15/50/60
s off
usemtl lambert11SG
f 45/51/61 46/52/62 47/53/63 48/54/64
s 3
usemtl lambert10SG
f 98/199/65 103/200/66 104/201/67 95/202/68
s 2
f 10/59/69 24/60/70 23/56/71 5/55/72
f 14/41/48 17/40/47 24/60/70 10/59/69
f 18/39/46 26/4/5 25/6/8 17/40/47
s 1
f 101/197/50 81/175/1 84/178/4 102/198/51
s 6
f 20/49/59 28/38/44 27/61/73 19/62/74
f 21/48/58 29/35/41 28/38/44 20/49/59
f 22/57/75 30/10/76 29/35/41 21/48/58
s 3
f 103/200/66 85/179/9 88/182/12 104/201/67
s 2
f 24/60/70 32/21/25 31/7/28 23/56/71
f 24/60/70 17/40/47 25/6/8 32/21/25
s off
usemtl lambert11SG
f 28/38/77 16/37/78 34/12/79 33/11/80
f 16/37/81 2/63/82 35/13/83 34/12/84
f 2/63/85 27/61/86 36/14/87 35/13/88
f 27/61/89 28/38/90 33/11/91 36/14/92
f 30/10/93 8/9/94 38/28/95 37/27/96
f 8/9/97 12/36/98 39/29/99 38/28/100
f 12/36/101 29/35/102 40/30/103 39/29/104
f 29/35/105 30/10/106 37/27/107 40/30/108
f 15/50/109 20/49/110 42/44/111 41/43/112
f 20/49/113 19/62/114 43/45/115 42/44/116
f 19/62/117 1/64/118 44/46/119 43/45/120
f 1/64/121 15/50/122 41/43/123 44/46/124
f 7/58/125 22/57/126 46/52/127 45/51/128
f 22/57/129 21/48/130 47/53/131 46/52/132
f 21/48/133 11/47/134 48/54/135 47/53/136
f 11/47/137 7/58/138 45/51/139 48/54/140
s 7
f 49/65/141 50/66/142 35/67/143 36/68/144
s 8
f 37/69/145 38/70/146 51/71/147 52/72/148
s 9
f 50/66/149 53/73/150 34/74/151 35/67/152
s 10
f 54/75/153 55/76/154 44/77/155 41/78/156
f 56/79/157 57/80/158 48/81/159 45/82/160
s 9
f 39/83/161 58/84/162 51/85/163 38/86/164
s 11
usemtl lambert10SG
f 40/87/165 33/88/166 34/89/167 39/90/168
s 10
f 57/80/158 54/75/153 41/78/156 48/81/159
s 12
f 59/91/169 58/92/170 53/93/171 60/94/172
s 9
f 34/74/151 53/73/150 58/84/162 39/83/161
s 7
usemtl lambert11SG
f 55/76/173 61/95/174 43/96/175 44/77/176
s 12
usemtl lambert10SG
f 57/97/177 62/98/178 63/99/179 54/100/180
s 8
usemtl lambert11SG
f 45/101/181 46/102/182 64/103/183 56/104/184
s 11
usemtl lambert10SG
f 41/105/185 42/106/186 47/107/187 48/108/188
f 43/96/189 36/68/190 33/88/166 42/106/186
s 7
f 61/95/174 49/65/141 36/68/144 43/96/175
s 12
f 63/99/179 60/94/172 49/109/191 61/110/192
f 62/98/178 59/91/169 60/94/172 63/99/179
f 64/103/193 52/72/194 59/91/169 62/98/178
s 8
f 46/102/182 37/69/145 52/72/148 64/103/183
s 11
f 47/107/187 40/87/165 37/69/195 46/102/196
f 47/107/187 42/106/186 33/88/166 40/87/165
s off
usemtl lambert11SG
f 50/111/197 49/112/198 65/113/199 66/114/200
f 52/115/201 51/116/202 68/117/203 67/118/204
f 53/119/205 50/120/206 66/121/207 69/122/208
f 55/123/209 54/124/210 70/125/211 71/126/212
f 57/127/213 56/128/214 72/129/215 73/130/216
f 51/131/217 58/132/218 74/133/219 68/134/220
f 58/135/221 59/136/222 75/137/223 74/138/224
f 60/139/225 53/140/226 69/141/227 76/142/228
f 61/143/229 55/144/230 71/145/231 77/146/232
f 62/147/233 57/148/234 73/149/235 78/150/236
f 54/151/237 63/152/238 79/153/239 70/154/240
f 56/155/241 64/156/242 80/157/243 72/158/244
f 49/159/245 60/160/246 76/161/247 65/162/248
f 63/163/249 61/164/250 77/165/251 79/166/252
f 59/167/253 52/168/254 67/169/255 75/170/256
f 64/171/257 62/172/258 78/173/259 80/174/260
f 66/114/261 65/162/262 76/142/263 69/122/264
f 68/134/265 74/138/266 75/170/267 67/118/268
f 71/126/269 70/154/270 79/166/271 77/146/272
f 73/130/273 72/158/274 80/174/275 78/150/276
usemtl lambert10SG
f 27/1/277 2/2/278 82/176/279 81/175/280
f 4/3/281 26/4/282 84/178/283 83/177/284
f 31/7/285 6/8/286 86/180/287 85/179/288
f 8/9/289 30/10/290 88/182/291 87/181/292
f 2/2/293 16/15/294 89/183/295 82/176/296
f 13/16/297 4/3/298 83/177/299 90/184/300
f 15/17/301 1/18/302 92/186/303 91/185/304
f 3/19/305 14/20/306 94/188/307 93/187/308
f 7/23/309 11/24/310 96/190/311 95/189/312
f 10/25/313 5/26/314 98/192/315 97/191/316
f 12/32/317 8/33/318 87/194/319 99/193/320
f 6/34/321 9/31/322 100/196/323 86/195/324
f 11/24/325 15/17/326 91/185/327 96/190/328
f 14/20/329 10/25/330 97/191/331 94/188/332
f 16/15/333 12/32/334 99/193/335 89/183/336
f 9/31/337 13/16/338 90/184/339 100/196/340
f 1/18/341 19/42/342 101/197/343 92/186/344
f 18/39/345 3/19/346 93/187/347 102/198/348
f 5/55/349 23/56/350 103/200/351 98/199/352
f 22/57/353 7/58/354 95/202/355 104/201/356
f 19/42/357 27/1/358 81/175/359 101/197/360
f 26/4/361 18/39/362 102/198/363 84/178/364
f 23/56/365 31/7/366 85/179/367 103/200/368
f 30/10/369 22/57/370 104/201/371 88/182/372
